<svg width="111" height="48" viewBox="0 0 291 102" fill="none" xmlns="http://www.w3.org/2000/svg">
<path d="M6.9 102C2.7 102 0.6 99.9 0.6 95.7V6.59999C0.6 2.39999 2.7 0.299995 6.9 0.299995C9.65 0.299995 11.95 1.65 13.8 4.35L49.2 57.6L46.5 58.05L82.2 4.35C83.9 1.65 86.45 0.299995 89.85 0.299995C93.25 0.299995 94.95 2.39999 94.95 6.59999V95.7C94.95 99.9 92.85 102 88.65 102C84.45 102 82.35 99.9 82.35 95.7V19.2L86.25 20.55L54.75 66.9C52.9 69.6 50.35 70.95 47.1 70.95C44.85 70.95 42.8 69.6 40.95 66.9L9.45 20.55L13.2 21.6V95.7C13.2 99.9 11.1 102 6.9 102ZM132.437 102C128.237 102 126.137 99.9 126.137 95.7V6.59999C126.137 2.39999 128.237 0.299995 132.437 0.299995H187.637C189.587 0.299995 191.112 0.874995 192.212 2.025C193.362 3.12499 193.937 4.64999 193.937 6.59999C193.937 10.8 191.837 12.9 187.637 12.9H138.737V44.4H168.887C173.087 44.4 175.187 46.5 175.187 50.7C175.187 54.9 173.087 57 168.887 57H138.737V95.7C138.737 99.9 136.637 102 132.437 102ZM215.787 102C211.587 102 209.487 99.9 209.487 95.7V6.59999C209.487 2.39999 211.587 0.299995 215.787 0.299995H251.937C264.987 0.299995 274.587 3.39999 280.737 9.59999C286.937 15.75 290.037 25.35 290.037 38.4V63.9C290.037 76.95 286.962 86.575 280.812 92.775C274.712 98.925 265.087 102 251.937 102H215.787ZM222.087 89.4H251.937C258.337 89.4 263.387 88.625 267.087 87.075C270.837 85.475 273.487 82.825 275.037 79.125C276.637 75.375 277.437 70.3 277.437 63.9V38.4C277.437 32.05 276.637 27.025 275.037 23.325C273.487 19.575 270.837 16.9 267.087 15.3C263.387 13.7 258.337 12.9 251.937 12.9H222.087V89.4Z" fill="url(#paint0_linear_216_2)"/>
<defs>
<linearGradient id="paint0_linear_216_2" x1="11" y1="102" x2="263" y2="102" gradientUnits="userSpaceOnUse">
<stop stop-color="#FF37C7"/>
<stop offset="0.793313" stop-color="#795EDF" stop-opacity="0.984132"/>
<stop offset="1" stop-color="#0280F4" stop-opacity="0.97"/>
</linearGradient>
</defs>
</svg>
